<?xml version="1.0" encoding="UTF-8"?>
<svg version="1.1" xmlns="http://www.w3.org/2000/svg" width="512" height="512">
<path d="M0 0 C84.48 0 168.96 0 256 0 C256 108.57 256 217.14 256 329 C171.52 329 87.04 329 0 329 C0 220.43 0 111.86 0 0 Z M76.65234375 71.734375 C64.16728613 88.25665686 60.04408994 106.13739674 62.40234375 126.46875 C65.89717069 144.92509098 76.93090738 159.83195647 92.25 170.3203125 C96.67493519 173.0230428 101.1580617 175.15545207 106 177 C106.77988281 177.3196875 107.55976563 177.639375 108.36328125 177.96875 C123.71690463 183.25803652 141.76143292 180.87136947 156.31640625 174.5625 C173.65986006 166.04434559 185.47741927 151.3429763 191.96875 133.30859375 C195.83229166 120.44800831 195.35958607 105.64655787 191 93 C190.7215625 92.14277344 190.443125 91.28554687 190.15625 90.40234375 C187.80237776 83.83788107 184.24618606 78.49559688 180 73 C179.48824219 72.31035156 178.97648437 71.62070313 178.44921875 70.91015625 C167.90234806 57.69385426 151.40497923 50.31557796 135 48 C113.0213027 45.95430967 91.04468298 54.97125111 76.65234375 71.734375 Z M60.22483826 215.31188965 C58.55300435 218.98100596 58.93215711 221.1557656 60 225 C61.68078343 227.30566008 62.54433172 227.92690352 65.38822842 228.38311005 C66.33893247 228.38683876 67.28963652 228.39056747 68.26914978 228.39440918 C69.90742485 228.41143387 69.90742485 228.41143387 71.57879639 228.42880249 C72.77732239 228.42587189 73.97584839 228.42294128 75.21069336 228.41992188 C77.10365898 228.43262619 77.10365898 228.43262619 79.03486633 228.44558716 C82.49771546 228.46782753 85.96032682 228.47073262 89.42323756 228.46883965 C92.31346936 228.46872006 95.20365057 228.4772793 98.09386832 228.48561716 C104.91214111 228.5048603 111.73029147 228.50773177 118.54858398 228.50097656 C125.58391826 228.49433462 132.6187284 228.51720359 139.65395635 228.55429029 C145.69312597 228.58497173 151.73212684 228.59634906 157.77137285 228.59245348 C161.37884428 228.59038432 164.9859079 228.59588994 168.59330559 228.62034607 C172.61586158 228.64671529 176.63730861 228.63289755 180.65991211 228.61523438 C181.85641388 228.62849762 183.05291565 228.64176086 184.28567505 228.65542603 C190.55322678 228.73397737 190.55322678 228.73397737 195.77516174 225.68811035 C197.44699565 222.01899404 197.06784289 219.8442344 196 216 C194.31921657 213.69433992 193.45566828 213.07309648 190.61177158 212.61688995 C189.66106753 212.61316124 188.71036348 212.60943253 187.73085022 212.60559082 C186.63866684 212.59424103 185.54648346 212.58289124 184.42120361 212.57119751 C183.22267761 212.57412811 182.02415161 212.57705872 180.78930664 212.58007812 C179.52732956 212.57160858 178.26535248 212.56313904 176.96513367 212.55441284 C173.50228454 212.53217247 170.03967318 212.52926738 166.57676244 212.53116035 C163.68653064 212.53127994 160.79634943 212.5227207 157.90613168 212.51438284 C151.08785889 212.4951397 144.26970853 212.49226823 137.45141602 212.49902344 C130.41608174 212.50566538 123.3812716 212.48279641 116.34604365 212.44570971 C110.30687403 212.41502827 104.26787316 212.40365094 98.22862715 212.40754652 C94.62115572 212.40961568 91.0140921 212.40411006 87.40669441 212.37965393 C83.38413842 212.35328471 79.36269139 212.36710245 75.34008789 212.38476562 C74.14358612 212.37150238 72.94708435 212.35823914 71.71432495 212.34457397 C65.44677322 212.26602263 65.44677322 212.26602263 60.22483826 215.31188965 Z M29.54730225 270.81299591 C27.28120057 274.01597299 27.45354548 276.17481834 28 280 C29.48184222 282.33657408 29.48184222 282.33657408 32 284 C34.71656131 284.39298743 37.02823726 284.540998 39.74316406 284.50793457 C40.9201203 284.51729451 40.9201203 284.51729451 42.12085342 284.52684355 C44.7527487 284.54281156 47.38372269 284.53015481 50.015625 284.51757812 C51.901332 284.52299756 53.78703477 284.53011922 55.67272949 284.53881836 C60.79667004 284.55707583 65.92028895 284.54997415 71.04423523 284.53730202 C76.40222044 284.52718692 81.76017779 284.53656355 87.11816406 284.54284668 C96.11658685 284.55012743 105.11487838 284.54052414 114.11328125 284.52148438 C124.52210635 284.49971486 134.93061807 284.50676592 145.33943558 284.52879 C154.2703177 284.54693179 163.20110538 284.54950828 172.13199997 284.53903532 C177.46862679 284.53279369 182.80510623 284.53198318 188.14172363 284.54518127 C193.15852047 284.55672137 198.17491261 284.54874768 203.19166565 284.52560425 C205.03474759 284.52030731 206.87786349 284.52184771 208.72093201 284.53065491 C211.23336247 284.54155536 213.744489 284.52791444 216.25683594 284.50793457 C217.35585928 284.5213189 217.35585928 284.5213189 218.47708511 284.53497362 C221.85567387 284.48270974 223.70374404 284.21898779 226.45269775 282.18700409 C228.71879943 278.98402701 228.54645452 276.82518166 228 273 C226.51815778 270.66342592 226.51815778 270.66342592 224 269 C221.28343869 268.60701257 218.97176274 268.459002 216.25683594 268.49206543 C215.47219845 268.48582547 214.68756096 268.4795855 213.87914658 268.47315645 C211.2472513 268.45718844 208.61627731 268.46984519 205.984375 268.48242188 C204.098668 268.47700244 202.21296523 268.46988078 200.32727051 268.46118164 C195.20332996 268.44292417 190.07971105 268.45002585 184.95576477 268.46269798 C179.59777956 268.47281308 174.23982221 268.46343645 168.88183594 268.45715332 C159.88341315 268.44987257 150.88512162 268.45947586 141.88671875 268.47851562 C131.47789365 268.50028514 121.06938193 268.49323408 110.66056442 268.47121 C101.7296823 268.45306821 92.79889462 268.45049172 83.86800003 268.46096468 C78.53137321 268.46720631 73.19489377 268.46801682 67.85827637 268.45481873 C62.84147953 268.44327863 57.82508739 268.45125232 52.80833435 268.47439575 C50.96525241 268.47969269 49.12213651 268.47815229 47.27906799 268.46934509 C44.76663753 268.45844464 42.255511 268.47208556 39.74316406 268.49206543 C38.64414072 268.4786811 38.64414072 268.4786811 37.52291489 268.46502638 C34.14432613 268.51729026 32.29625596 268.78101221 29.54730225 270.81299591 Z " fill="#00CCD9" transform="translate(250,139)"/>
<path d="M0 0 C0.99320667 -0.00480972 0.99320667 -0.00480972 2.00647813 -0.0097166 C4.2289456 -0.01802908 6.45114445 -0.01208804 8.67361641 -0.00622082 C10.28161679 -0.00924094 11.88961573 -0.01312972 13.49761212 -0.01781338 C17.91943955 -0.02812017 22.34118614 -0.02590475 26.76302028 -0.02163279 C31.53067261 -0.01917042 36.29830523 -0.02817365 41.06595039 -0.03567028 C50.40758892 -0.04843303 59.74919872 -0.050209 69.0908445 -0.04787002 C76.68267917 -0.04608842 84.2745051 -0.0478331 91.86633873 -0.05209446 C93.48587729 -0.05298724 93.48587729 -0.05298724 95.1381338 -0.05389806 C97.33139601 -0.05510979 99.52465823 -0.05632392 101.71792044 -0.05754044 C122.29609291 -0.0684221 142.874249 -0.06625055 163.4524224 -0.06015559 C182.28438778 -0.05498615 201.11630144 -0.06624151 219.9482566 -0.08525381 C239.2773157 -0.10461863 258.60635033 -0.11289058 277.9354192 -0.10913056 C288.79024528 -0.10721642 299.64502733 -0.10972676 310.4998455 -0.1238451 C319.74085854 -0.1357426 328.98180045 -0.13718214 338.22281443 -0.12505493 C342.93858313 -0.11915472 347.65422164 -0.11809831 352.36998177 -0.13005733 C356.68665202 -0.14087714 361.00308276 -0.13785945 365.31974162 -0.12379565 C366.88161742 -0.12113793 368.44351175 -0.12354887 370.00536941 -0.13153151 C372.12900076 -0.14163228 374.25179868 -0.13322109 376.37539673 -0.12025452 C378.14443527 -0.12033704 378.14443527 -0.12033704 379.94921196 -0.12042123 C385.39902878 0.48686774 390.01939918 2.57039517 394.18853951 6.19197559 C394.76346138 6.67537403 395.33838326 7.15877247 395.93072701 7.65681934 C397.31353951 9.25447559 397.31353951 9.25447559 398.31353951 13.25447559 C334.62353951 13.25447559 270.93353951 13.25447559 205.31353951 13.25447559 C205.31353951 51.20447559 205.31353951 89.15447559 205.31353951 128.25447559 C186.50353951 128.25447559 167.69353951 128.25447559 148.31353951 128.25447559 C148.31353951 138.48447559 148.31353951 148.71447559 148.31353951 159.25447559 C130.85157209 153.49291274 113.45273685 147.59240046 96.09945869 141.51305103 C80.22518308 135.95279339 64.32721827 130.46316517 48.42013741 124.99767017 C11.5956874 112.34470548 11.5956874 112.34470548 -5.54394341 106.34218311 C-7.12543447 105.78844539 -8.70725707 105.23565352 -10.2894268 104.68385792 C-12.40721376 103.94477256 -14.52363239 103.20191702 -16.63958549 102.45760059 C-17.79619682 102.05186817 -18.95280815 101.64613575 -20.14446831 101.22810841 C-22.68646049 100.25447559 -22.68646049 100.25447559 -23.68646049 99.25447559 C-23.80279505 96.74120294 -23.85445472 94.25503177 -23.86346245 91.74055958 C-23.87003365 90.95347111 -23.87660484 90.16638264 -23.88337517 89.355443 C-23.90316612 86.7371509 -23.91478725 84.11891647 -23.92474174 81.50056934 C-23.92881727 80.60680151 -23.9328928 79.71303368 -23.93709183 78.79218197 C-23.95798322 74.05622683 -23.97226821 69.32030088 -23.98162651 64.58430958 C-23.99266141 59.70070985 -24.02701849 54.81756951 -24.06679821 49.93413162 C-24.09300798 46.17390593 -24.10132251 42.41378857 -24.10490799 38.65347958 C-24.10976739 36.85422719 -24.12136293 35.05497944 -24.13994598 33.25581646 C-24.1644171 30.72823236 -24.16335754 28.20182078 -24.1564312 25.67415333 C-24.16924126 24.93772602 -24.18205132 24.20129871 -24.19524956 23.44255543 C-24.1312265 16.99293997 -21.97511416 11.86617978 -17.72161674 7.01228809 C-17.07064018 6.47345997 -16.41966362 5.93463184 -15.74896049 5.37947559 C-15.10056206 4.82517872 -14.45216362 4.27088184 -13.78411674 3.69978809 C-9.27732633 0.59455075 -5.42256529 0.00398645 0 0 Z " fill="#00CDD9" transform="translate(29.686460494995117,111.7455244064331)"/>
<path d="M0 0 C20.87474277 6.92474775 41.72262305 13.91239023 62.5 21.125 C64.82675636 21.93093762 67.15358107 22.73667793 69.48046875 23.54223633 C74.26078934 25.19749453 79.0407165 26.85388121 83.8203125 28.51123047 C90.9728563 30.99114391 98.12688983 33.46673856 105.28125 35.94140625 C111.94866933 38.24791597 118.61608295 40.55444209 125.28320312 42.86181641 C126.28774536 43.20883606 127.2922876 43.55585571 128.32727051 43.91339111 C130.29614691 44.59656023 132.26324256 45.28488616 134.22839355 45.97869873 C139.28860734 47.75859145 144.3553845 49.42324663 149.5 50.94384766 C151.08687622 51.43507866 151.08687622 51.43507866 152.70581055 51.93623352 C154.72064756 52.55773553 156.74558457 53.14771496 158.78051758 53.69987488 C165.35992836 55.77961877 165.35992836 55.77961877 167.2175293 59.32138062 C168 61.9675293 168 61.9675293 168.48828125 64.50517273 C170.11674106 72.44454556 175.75044508 79.12329813 182 84 C189.69478273 88.59688319 196.21228061 91.13283971 205.1875 91.1875 C206.23292969 91.20167969 207.27835938 91.21585937 208.35546875 91.23046875 C212.95482722 90.93961971 217.48094935 89.90381013 222 89 C222 118.04 222 147.08 222 177 C173.83339599 177.16121214 173.83339599 177.16121214 153.625 177.1953125 C139.68027858 177.21903249 125.73565395 177.24689393 111.79101562 177.30175781 C101.63449473 177.34169856 91.47805249 177.36745014 81.32145524 177.37635398 C75.94646099 177.38155645 70.57169168 177.39373447 65.19676971 177.42292023 C60.13082065 177.45020368 55.06518778 177.45841895 49.99917221 177.45243073 C48.14652916 177.4535252 46.29387482 177.46140163 44.44129562 177.4768219 C30.38712742 177.58800096 18.70015599 176.75391026 8.1328125 166.44140625 C2.01430695 159.43762242 -0.12797218 152.92675972 -0.12025452 143.70414734 C-0.12162918 142.43515091 -0.12300385 141.16615448 -0.12442017 139.85870361 C-0.12088148 138.46008277 -0.11724668 137.06146217 -0.11352539 135.6628418 C-0.1132432 134.18429059 -0.11340188 132.70573924 -0.1139679 131.22718811 C-0.11425462 127.21933525 -0.10837804 123.21151235 -0.10139394 119.20366645 C-0.09513965 115.01296119 -0.09455496 110.82225523 -0.09336853 106.63154602 C-0.09026134 98.69852924 -0.08205619 90.76552625 -0.07201904 82.83251554 C-0.06083891 73.79992521 -0.05534266 64.76733423 -0.05032361 55.73473871 C-0.03987308 37.15648465 -0.02228548 18.57824344 0 0 Z " fill="#00A4E2" transform="translate(13,229)"/>
<path d="M0 0 C0.65366511 -0.00367669 1.30733022 -0.00735338 1.98080337 -0.01114148 C4.17543243 -0.02217157 6.37001413 -0.02602104 8.56466675 -0.02983093 C10.13669485 -0.03609622 11.70872146 -0.04274308 13.28074646 -0.04974365 C18.44812998 -0.07078303 23.61551378 -0.0811476 28.78292847 -0.09111023 C30.56298717 -0.09515817 32.34304571 -0.09927511 34.1231041 -0.10346031 C42.48828443 -0.12251365 50.85345594 -0.136743 59.2186538 -0.14507228 C68.86700383 -0.15483824 78.51512406 -0.18114035 88.16339314 -0.22157317 C95.62510562 -0.25176675 103.08675237 -0.26654433 110.54852474 -0.26985329 C115.00285276 -0.27220057 119.45693531 -0.28111854 123.91119766 -0.30631447 C128.10554923 -0.32965629 132.2994948 -0.33380404 136.49389458 -0.32355309 C138.02851019 -0.32305905 139.5631462 -0.32934023 141.09770012 -0.34310913 C152.02293351 -0.4356053 160.69574622 0.71725721 169.01730347 8.30342102 C174.34312762 14.55662749 176.74633283 21.81495464 176.65011597 29.89717102 C176.64109253 30.88201477 176.63206909 31.86685852 176.62277222 32.88154602 C176.60536987 34.0030304 176.60536987 34.0030304 176.58761597 35.14717102 C178.56761597 35.14717102 180.54761597 35.14717102 182.58761597 35.14717102 C182.58761597 41.08717102 182.58761597 47.02717102 182.58761597 53.14717102 C172.68761597 53.14717102 162.78761597 53.14717102 152.58761597 53.14717102 C152.58761597 47.20717102 152.58761597 41.26717102 152.58761597 35.14717102 C154.56761597 35.14717102 156.54761597 35.14717102 158.58761597 35.14717102 C158.25576459 27.11817673 158.25576459 27.11817673 154.58761597 20.14717102 C151.80737973 18.7570529 149.5326045 19.00835829 146.42042542 18.99327087 C145.1038797 18.98467041 143.78733398 18.97606995 142.43089294 18.96720886 C140.96319619 18.96277349 139.49549903 18.95847514 138.02780151 18.95429993 C136.48883885 18.94640013 134.94987804 18.93813125 133.41091919 18.92951965 C128.3487424 18.9032868 123.28655727 18.8879914 118.22433472 18.87373352 C116.48288276 18.86837448 114.74143086 18.86299697 112.99997902 18.85760117 C105.75720658 18.83597116 98.51443639 18.81723359 91.27163982 18.80597878 C80.88530667 18.78973392 70.49934729 18.75654473 60.11315507 18.69957793 C52.81373385 18.66090392 45.51441273 18.64134915 38.21489173 18.63605821 C33.85338993 18.63240141 29.49228668 18.62034573 25.13089561 18.58795547 C21.02761043 18.557919 16.92496585 18.55154686 12.82159424 18.56333923 C11.3159274 18.56356034 9.81023122 18.55522454 8.30466652 18.53768539 C6.24759087 18.51502658 4.19284477 18.52326887 2.13575745 18.53916931 C0.40990937 18.53420409 0.40990937 18.53420409 -1.35080433 18.52913857 C-5.37257888 19.34100284 -6.86895404 20.99856671 -9.41238403 24.14717102 C-10.21695266 27.01816784 -10.21695266 27.01816784 -10.22488403 29.95967102 C-10.27257935 30.93549133 -10.32027466 31.91131165 -10.36941528 32.91670227 C-10.39068481 34.0207843 -10.39068481 34.0207843 -10.41238403 35.14717102 C-8.43238403 35.14717102 -6.45238403 35.14717102 -4.41238403 35.14717102 C-4.41238403 41.08717102 -4.41238403 47.02717102 -4.41238403 53.14717102 C-14.31238403 53.14717102 -24.21238403 53.14717102 -34.41238403 53.14717102 C-34.41238403 47.20717102 -34.41238403 41.26717102 -34.41238403 35.14717102 C-32.43238403 35.14717102 -30.45238403 35.14717102 -28.41238403 35.14717102 C-28.44718872 34.38533508 -28.48199341 33.62349915 -28.51785278 32.83857727 C-28.80356576 21.94066804 -27.20838805 15.13180719 -19.60769653 7.09638977 C-13.87814947 2.00912289 -7.56278086 0.02755713 0 0 Z " fill="#00E7D3" transform="translate(144.41238403320313,43.85282897949219)"/>
<path d="M0 0 C1.09441406 -0.01998047 2.18882812 -0.03996094 3.31640625 -0.06054688 C16.23333158 -0.05290372 26.4633482 3.86317235 36.125 12.4375 C38.47558908 14.90427789 40.73042579 17.3062862 42.125 20.4375 C41.55062448 26.06204523 37.00052225 29.89447137 32.85546875 33.3046875 C21.92372587 41.32703739 8.78935302 45.91074561 -4.875 44.4375 C-19.18853978 41.87214053 -30.93176201 36.67506025 -40.625 25.40234375 C-41.875 23.4375 -41.875 23.4375 -41.4375 20.625 C-37.1748627 11.92921992 -29.68996701 6.16239591 -20.73974609 2.58374023 C-13.82314288 0.2337702 -7.25954765 -0.04669884 0 0 Z " fill="#00D4D7" transform="translate(377.875,260.5625)"/>
<path d="M0 0 C5.36384421 3.1578373 9.36014238 7.84528475 12.125 13.375 C13.53162833 21.18960183 13.22932858 27.18332492 9.3046875 34.234375 C5.87799405 39.03505664 1.67270858 41.6544482 -3.6875 43.9375 C-10.66310391 45.0199213 -17.26326458 44.33079907 -23.4921875 40.86328125 C-28.50079557 37.11219924 -32.06451919 31.61510595 -33.3125 25.5 C-34.13115844 18.77165095 -33.04584537 13.20921061 -29.3125 7.5 C-21.61308995 -0.9388106 -11.05778992 -4.88097758 0 0 Z " fill="#00E1D4" transform="translate(388.3125,208.5)"/>
</svg>
